<svg viewBox="0 0 30.015 11.401" xmlns="http://www.w3.org/2000/svg"><text xml:space="preserve" style="font-weight:700;font-size:4.5861px;font-family:Oswald;-inkscape-font-specification:&quot;Oswald Bold&quot;;text-align:center;text-anchor:middle;fill:#bb18bf;fill-opacity:1;stroke-width:3;paint-order:markers stroke fill" x="104.926" y="149.708" transform="translate(-89.992 -146.19)"><tspan style="font-style:normal;font-variant:normal;font-weight:700;font-stretch:normal;font-family:&quot;Comic Sans MS&quot;;-inkscape-font-specification:&quot;Comic Sans MS Bold&quot;;fill:#bb18bf;fill-opacity:1;stroke-width:3" x="104.926" y="149.708">BUILT WITH</tspan></text><g aria-label="AIDS" style="font-weight:700;font-size:4.5861px;font-family:&quot;Comic Sans MS&quot;;-inkscape-font-specification:&quot;Comic Sans MS Bold&quot;;text-align:center;text-anchor:middle;fill:#bb18bf;stroke-width:3;paint-order:markers stroke fill"><path d="M11.352 9.752q-.171.043-.458-.3-.188-.22-.366-.527-.153.07-.507.199-.333.123-.504.208-.03.265-.136.811-.05.183-.217.232-.118.034-.236-.018-.118-.054-.155-.178-.032-.11.097-.836-.05-.058-.062-.117-.022-.106.161-.222.15-.618.36-1.295.299-.971.423-1.008.237-.069.4.194.11.218.337.65.312.581.734 1.324.032.055.192.251.131.163.158.255.037.125-.033.236-.068.111-.188.141zM9.907 7.781q-.084.337-.233.92.09-.05.29-.123.237-.085.297-.112-.134-.264-.354-.685zM13.756 6.726q-.116.011-.641 0 .009.413.076 1.093l.096 1q.296-.035.603-.066.134-.013.23.068.098.08.11.205.012.125-.068.223-.079.095-.212.108-.125.013-.374.044-.25.029-.374.041-.147.015-.437.081-.29.07-.438.084-.133.013-.231-.065-.096-.08-.108-.205-.012-.125.066-.223.08-.098.214-.11.151-.016.395-.074-.03-.262-.103-1.006-.06-.607-.07-1.161l-.482.06q-.134.014-.233-.064-.098-.078-.11-.208-.014-.131.067-.222.075-.084.194-.107.195-.037.68-.085.437-.043 1.135-.017.278.01.305.28.014.143-.09.236-.084.078-.2.09zM15.012 9.363q-.132-.013-.214-.108-.081-.097-.07-.221.018-.224.076-.668.06-.445.078-.668.021-.247.052-.744.032-.496.053-.744.01-.122.139-.233.128-.113.262-.101.074.006.36.17.331.193.394.219.636.267 1.06.75.507.575.453 1.215-.032.386-.25.719-.22.338-.569.525-.39.21-1.062.153-.163-.014-.371-.078-.252-.08-.391-.186zm1.447-2.188q-.205-.155-.892-.507l-.186 2.21q.082.062.191.1.112.037.25.049.482.04.703-.076.21-.11.344-.32.137-.208.156-.445.047-.553-.566-1.011zM18.88 10.069q-.546-.163-.787-.498-.204-.28-.125-.545.04-.135.148-.199.108-.066.252-.023.193.058.224.282.044.3.476.43.369.11.762.051.408-.058.467-.256.08-.27-.117-.423-.14-.11-.616-.262-.369-.12-.624-.338-.344-.297-.238-.627.131-.417.675-.633.544-.22 1.074-.061.21.063.49.251.349.235.302.391-.033.112-.136.175-.115.07-.25.03-.1-.03-.29-.132-.187-.103-.29-.134-.277-.08-.565-.023-.297.056-.344.213-.024.081.037.158.064.075.215.143l.538.193q.465.179.673.493.228.349.093.803-.165.554-.881.652-.546.073-1.164-.111z"/></g><path style="fill:#bb18bf;fill-opacity:1;stroke:none;stroke-width:3;paint-order:markers stroke fill" d="M99.052 156.938c-.005-.004.095-.118.325-.238.033-.017.06-.055.11-.081.047-.025.092-.035.144-.051.107-.034.23-.035.35-.069.027-.007.048-.01.072-.026.011-.007.006-.01.019-.012.028-.007.056-.008.085-.011.145-.015.3-.017.465-.002.033.003.06.014.08.015.246.016.498-.01.782-.056.173-.027.33-.087.516-.144.098-.03.192-.044.288-.065.118-.026.25-.07.386-.082.333-.029.672-.049 1.03-.066.208-.009.415.016.617 0a3.99 3.99 0 0 1 .669-.01c.098.008.193.02.287.025.085.005.175-.006.27 0 .083.006.155.028.222.032.04.003.088-.003.142 0 .131.008.26.025.386.049l.146.028c.017.004.032.005.05.011-.018 0-.044-.004-.06-.006-.02-.002-.04-.007-.06-.006v.001c.013.006.026.007.041.01.04.01.08.018.12.026.208.042.417.079.616.112.203.035.404.055.597.066.239.013.451.012.672.068.052.013.092.038.128.048.222.067.438.117.634.18.078.03.147.058.22.08.188.061.38.07.538.134.117.05.183.142.256.197.27.203.494.168.494.175 0 .007-.226.061-.518-.142-.081-.056-.15-.146-.251-.183-.148-.057-.336-.06-.538-.12-.076-.022-.146-.049-.224-.077-.193-.058-.407-.104-.633-.169-.05-.014-.089-.038-.125-.046-.209-.051-.414-.047-.658-.059a5.29 5.29 0 0 1-.607-.061c-.2-.033-.41-.068-.619-.11l-.12-.024c-.015-.003-.029-.004-.043-.01.02-.003.04.001.06.004.016.002.043.007.06.007-.017-.006-.032-.007-.05-.011l-.144-.027a2.93 2.93 0 0 0-.374-.047c-.041-.003-.089.003-.143 0-.081-.005-.154-.027-.222-.031-.082-.006-.172.005-.268 0-.099-.006-.194-.017-.291-.025l-.074-.006c-.192-.014-.387 0-.579.015-.215.016-.422-.009-.619 0-.359.015-.695.033-1.027.06-.121.009-.25.05-.375.077-.1.021-.192.034-.282.061-.183.054-.345.114-.528.141a3.455 3.455 0 0 1-.8.04c-.035-.004-.06-.016-.08-.017a2.4 2.4 0 0 0-.454-.002c-.029.003-.056.003-.084.01-.012.003-.007.006-.017.012-.024.014-.045.017-.07.024-.13.033-.25.03-.348.058-.054.016-.097.023-.14.044-.037.017-.069.056-.112.076-.236.113-.335.21-.34.206z" class="UnoptimicedTransforms" transform="translate(-90.015 -145.922)"/><path style="fill:#bb18bf;fill-opacity:1;stroke:none;stroke-width:3;paint-order:markers stroke fill" d="M111.402 152.283c-.016-.01-.032-.075.059-.194.148-.164.302-.126.565-.18.021-.003.029-.033.049-.033.117-.002.225.04.325.056l.149.04.036.008c.043 0 .054.029.02.049-.013.031-.03.017-.004-.034.046-.052.067-.057.04-.056.106-.11.203-.213.345-.271.134-.034.203.015.24.01.026-.003.05-.011.072-.014l.016-.001c.15-.001.156-.077.178-.077.022 0 .025.116-.14.178l-.02.008c-.026.012-.052.03-.08.039-.096.022-.187-.016-.204.01-.104.04-.171.123-.29.235-.058.034-.098.026-.085.008.012-.035.024-.018-.003.03-.065.049-.108.054-.108.048l-.04-.002a14.329 14.329 0 0 1-.155-.013c-.122-.021-.22-.068-.308-.07-.01 0-.007.028-.015.03-.26.051-.429.002-.51.074-.076.047-.116.132-.132.122zM112.415 154.69c-.004-.03.31-.038.62-.312.072-.062.147-.136.232-.214l.148-.135c.02-.018.048-.043.07-.065.063-.066.132-.181.249-.248.226-.085.427.036.568.12l.01.005c.195.088.334.183.497.216.018.009.072-.008.151 0 .098.013.133.059.12.044-.021.022-.018-.01.04-.049.173-.127.293-.226.459-.311.395-.195.667-.093.667-.065 0 .028-.289-.009-.598.189-.152.092-.243.18-.428.322.006-.002-.004.034-.087.078-.115.019-.183-.02-.197-.02-.023-.005-.078.013-.165 0-.208-.041-.367-.14-.543-.223-.003 0-.006-.003-.008-.004-.19-.066-.324-.195-.4-.129-.073.028-.118.122-.195.196-.025.024-.06.052-.087.075l-.159.132c-.092.075-.164.138-.253.202-.393.278-.706.224-.71.195zM97.564 154.848c-.006.028-.309.024-.824.041a5.37 5.37 0 0 1-.158-.021c-.003.006-.036.006-.082-.035-.075-.215.02-.443-.04-.596.022-.02-.078-.017-.176-.08a3.433 3.433 0 0 0-.272-.102c-.031-.04-.095.043-.216.1a.472.472 0 0 1-.065.027c-.305.11-.625.068-.882-.002a.61.61 0 0 1-.437-.526c-.03-.154.06-.255.017-.23-.034-.03-.12-.01-.206-.037-.354-.105-.355-.407-.333-.407.023 0 .065.216.365.29.047.01.126-.016.237.027.134.115.088.268.08.34.02.155.142.324.323.36.243.055.526.092.765-.001a.59.59 0 0 0 .039-.022c.083-.052.202-.135.376-.106.1.034.195.071.287.112a.36.36 0 0 1 .28.213c.044.27-.083.471-.04.607-.042-.02-.035-.04-.02-.034l.158-.022c.501.018.83.077.824.105zM98.387 152.821c-.01.031-.28-.238-.664-.369a2.627 2.627 0 0 0-.523-.138c-.043-.007-.095 0-.163.002-.052.028-.141.023-.212-.032-.036-.094-.033-.143-.049-.133-.018-.05-.036-.102-.056-.148a.353.353 0 0 0-.105-.149c.003-.018-.074-.005-.175-.061-.066-.046-.073-.08-.052-.06-.015-.01-.074-.001-.155-.027-.108-.063-.158-.162-.192-.2.028.009-.001.014-.05-.028-.075-.219-.007-.531 0-.62.003-.116.058-.155.037-.173.001 0-.007.015-.016.015-.005 0-.029-.072.048-.048.065.07.032.133.037.206.01.162-.06.4 0 .585-.032-.017-.043-.055.012-.029.09.053.14.122.19.117.017.01.074.003.16.036.075.043.09.082.076.067.012.012.094-.003.204.065.074.063.126.14.162.223.027.06.045.12.057.177.001.072-.033.092-.046.058.025-.049.083-.063.121-.037.057 0 .122-.007.198.006.21.039.397.106.554.179.487.232.613.486.602.517z" class="UnoptimicedTransforms" transform="translate(-89.992 -146.19)"/></svg>